<svg width="24" height="20" viewBox="0 0 24 20" fill="none" xmlns="http://www.w3.org/2000/svg">
<path d="M24.0004 2.46499C23.1188 2.85093 22.1594 3.12868 21.1712 3.23686C22.1972 2.6183 22.9655 1.64107 23.332 0.488518C22.3692 1.06973 21.3145 1.47729 20.2146 1.69311C19.7549 1.19439 19.1989 0.797093 18.5813 0.525965C17.9637 0.254836 17.2976 0.115691 16.6247 0.1172C13.902 0.1172 11.7123 2.35681 11.7123 5.10515C11.7123 5.49109 11.7584 5.87703 11.8333 6.24835C7.75651 6.03199 4.1205 4.05552 1.70321 1.02942C1.26276 1.79286 1.03194 2.66213 1.03479 3.54678C1.03479 5.27766 1.90201 6.80386 3.22446 7.70146C2.44512 7.67032 1.68403 7.45294 1.00309 7.067V7.1284C1.00309 9.55221 2.69145 11.5608 4.94163 12.0228C4.51913 12.1342 4.0845 12.1911 3.64799 12.1924C3.32818 12.1924 3.02566 12.1602 2.72026 12.1164C3.34259 14.0928 5.15483 15.5284 7.31281 15.5752C5.62446 16.9172 3.50969 17.7066 1.21342 17.7066C0.801412 17.7066 0.4211 17.692 0.0263824 17.6452C2.20453 19.0632 4.78893 19.8819 7.57212 19.8819C16.6074 19.8819 21.5515 12.2859 21.5515 5.69283C21.5515 5.47647 21.5515 5.26011 21.5371 5.04375C22.4936 4.33328 23.332 3.45322 24.0004 2.46499Z" fill="#21A6DF"/>
</svg>
