<svg width="24" height="24" viewBox="0 0 24 24" fill="none" xmlns="http://www.w3.org/2000/svg">
<path d="M12.0018 5.84768C8.59678 5.84768 5.84878 8.59568 5.84878 12.0007C5.84878 15.4057 8.59678 18.1537 12.0018 18.1537C15.4068 18.1537 18.1548 15.4057 18.1548 12.0007C18.1548 8.59568 15.4068 5.84768 12.0018 5.84768ZM12.0018 15.9997C9.79978 15.9997 8.00278 14.2027 8.00278 12.0007C8.00278 9.79868 9.79978 8.00168 12.0018 8.00168C14.2038 8.00168 16.0008 9.79868 16.0008 12.0007C16.0008 14.2027 14.2038 15.9997 12.0018 15.9997ZM18.4068 4.16168C17.6118 4.16168 16.9698 4.80368 16.9698 5.59868C16.9698 6.39368 17.6118 7.03568 18.4068 7.03568C19.2018 7.03568 19.8438 6.39668 19.8438 5.59868C19.844 5.4099 19.807 5.22294 19.7349 5.04848C19.6627 4.87403 19.5569 4.71553 19.4234 4.58204C19.2899 4.44855 19.1314 4.34272 18.957 4.27058C18.7825 4.19845 18.5956 4.16144 18.4068 4.16168ZM23.9958 12.0007C23.9958 10.3447 24.0108 8.70368 23.9178 7.05068C23.8248 5.13068 23.3868 3.42668 21.9828 2.02268C20.5758 0.615681 18.8748 0.180681 16.9548 0.0876813C15.2988 -0.00531865 13.6578 0.00968139 12.0048 0.00968139C10.3488 0.00968139 8.70778 -0.00531865 7.05479 0.0876813C5.13479 0.180681 3.43079 0.618681 2.02679 2.02268C0.619786 3.42968 0.184786 5.13068 0.091786 7.05068C-0.00121403 8.70668 0.013786 10.3477 0.013786 12.0007C0.013786 13.6537 -0.00121403 15.2977 0.091786 16.9507C0.184786 18.8707 0.622786 20.5747 2.02679 21.9787C3.43379 23.3857 5.13479 23.8207 7.05479 23.9137C8.71078 24.0067 10.3518 23.9917 12.0048 23.9917C13.6608 23.9917 15.3018 24.0067 16.9548 23.9137C18.8748 23.8207 20.5788 23.3827 21.9828 21.9787C23.3898 20.5717 23.8248 18.8707 23.9178 16.9507C24.0138 15.2977 23.9958 13.6567 23.9958 12.0007ZM21.3558 19.0747C21.1368 19.6207 20.8728 20.0287 20.4498 20.4487C20.0268 20.8717 19.6218 21.1357 19.0758 21.3547C17.4978 21.9817 13.7508 21.8407 12.0018 21.8407C10.2528 21.8407 6.50279 21.9817 4.92479 21.3577C4.37879 21.1387 3.97079 20.8747 3.55079 20.4517C3.12779 20.0287 2.86379 19.6237 2.64479 19.0777C2.02079 17.4967 2.16179 13.7497 2.16179 12.0007C2.16179 10.2517 2.02079 6.50168 2.64479 4.92368C2.86379 4.37768 3.12779 3.96968 3.55079 3.54968C3.97379 3.12968 4.37879 2.86268 4.92479 2.64368C6.50279 2.01968 10.2528 2.16068 12.0018 2.16068C13.7508 2.16068 17.5008 2.01968 19.0788 2.64368C19.6248 2.86268 20.0328 3.12668 20.4528 3.54968C20.8758 3.97268 21.1398 4.37768 21.3588 4.92368C21.9828 6.50168 21.8418 10.2517 21.8418 12.0007C21.8418 13.7497 21.9828 17.4967 21.3558 19.0747Z" fill="#E61F5A"/>
</svg>
