<svg width="68" height="59" viewBox="0 0 68 59" fill="none" xmlns="http://www.w3.org/2000/svg">
<path fill-rule="evenodd" clip-rule="evenodd" d="M0 8.42857C0 6.19318 0.895533 4.04934 2.48959 2.46867C4.08365 0.888008 6.24566 0 8.5 0H65.875C66.4386 0 66.9791 0.222002 67.3776 0.617168C67.7761 1.01233 68 1.54829 68 2.10714C68 2.66599 67.7761 3.20195 67.3776 3.59712C66.9791 3.99228 66.4386 4.21429 65.875 4.21429H63.75V12.6429C64.8772 12.6429 65.9582 13.0869 66.7552 13.8772C67.5522 14.6675 68 15.7394 68 16.8571V52.6786C68 54.3551 67.3284 55.963 66.1328 57.1485C64.9373 58.334 63.3158 59 61.625 59H10.625C7.80707 59 5.10456 57.89 3.11199 55.9142C1.11942 53.9383 0 51.2585 0 48.4643L0 8.42857ZM4.25 15.7277V48.4643C4.25 50.1408 4.92165 51.7487 6.11719 52.9342C7.31274 54.1197 8.93425 54.7857 10.625 54.7857H61.625C62.1886 54.7857 62.7291 54.5637 63.1276 54.1685C63.5261 53.7734 63.75 53.2374 63.75 52.6786V16.8571H8.5C7.00765 16.8591 5.54137 16.4694 4.25 15.7277ZM4.25 8.42857C4.25 9.54627 4.69777 10.6182 5.4948 11.4085C6.29183 12.1989 7.37283 12.6429 8.5 12.6429H59.5V4.21429H8.5C7.37283 4.21429 6.29183 4.65829 5.4948 5.44862C4.69777 6.23895 4.25 7.31087 4.25 8.42857Z" fill="#23A6F0"/>
</svg>
