<svg width="72" height="60" viewBox="0 0 72 60" fill="none" xmlns="http://www.w3.org/2000/svg">
<path d="M58.9091 29.6471H52.3636V39.5295H42.5455V46.1177H58.9091V29.6471ZM19.6364 19.7647H29.4545V13.1765H13.0909V29.6471H19.6364V19.7647ZM65.4545 0H6.54545C4.80949 0 3.14463 0.694117 1.91712 1.92965C0.689609 3.16519 0 4.84094 0 6.58825V52.706C0 54.4533 0.689609 56.129 1.91712 57.3646C3.14463 58.6001 4.80949 59.2942 6.54545 59.2942H65.4545C67.1905 59.2942 68.8554 58.6001 70.0829 57.3646C71.3104 56.129 72 54.4533 72 52.706V6.58825C72 4.84094 71.3104 3.16519 70.0829 1.92965C68.8554 0.694117 67.1905 0 65.4545 0ZM65.4545 52.706H6.54545V6.58825H65.4545V52.706Z" fill="#23A6F0"/>
</svg>
